<svg width="31" height="31" viewBox="0 0 31 31" fill="none" xmlns="http://www.w3.org/2000/svg">
<path fill-rule="evenodd" clip-rule="evenodd" d="M0.380615 23.0002C0.380615 27.4185 3.96234 31.0002 8.38062 31.0002L22.6196 31.0002C27.0379 31.0002 30.6196 27.4185 30.6196 23.0002L30.6196 8.76123C30.6196 4.34295 27.0379 0.761231 22.6196 0.761231L8.38062 0.761231C3.96234 0.761231 0.380616 4.34295 0.380615 8.76123L0.380615 23.0002ZM2.85521 22.6105C2.85521 25.9242 5.5415 28.6105 8.85521 28.6105L22.145 28.6105C25.4587 28.6105 28.145 25.9242 28.145 22.6105L28.145 20.1473C28.145 16.8336 25.4587 14.1473 22.145 14.1473L8.85521 14.1473C5.5415 14.1473 2.85521 16.8336 2.85521 20.1473L2.85521 22.6105Z" fill="white"/>
</svg>
