<svg width="393" height="90" viewBox="0 0 393 90" fill="none" xmlns="http://www.w3.org/2000/svg">
<path d="M11.8804 2.77761L28.3924 60.6656H29.3524L45.8644 2.77761H57.1924L37.5124 69.9776H20.1364L0.456375 2.77761H11.8804Z" fill="white"/>
<path d="M74.1401 69.9776H63.6761V22.6496H74.1401V69.9776ZM61.0841 8.53761C61.0841 6.29762 61.8201 4.47362 63.2921 3.06561C64.7641 1.65761 66.6201 0.953613 68.8601 0.953613C71.1001 0.953613 72.9561 1.65761 74.4281 3.06561C75.9001 4.47362 76.6361 6.29762 76.6361 8.53761C76.6361 10.7136 75.9001 12.5056 74.4281 13.9136C72.9561 15.3216 71.1001 16.0256 68.8601 16.0256C66.6201 16.0256 64.7641 15.3216 63.2921 13.9136C61.8201 12.5056 61.0841 10.7136 61.0841 8.53761Z" fill="white"/>
<path d="M83.1064 45.8816C83.1064 41.1456 84.0984 36.9216 86.0824 33.2096C88.1304 29.4336 90.9464 26.4896 94.5304 24.3776C98.1784 22.2656 102.306 21.2096 106.914 21.2096C111.394 21.2096 115.362 22.2016 118.818 24.1856C122.338 26.1696 125.058 28.9536 126.978 32.5376C128.898 36.1216 129.858 40.3136 129.858 45.1136V49.5296H94.0504C94.3064 53.2416 95.6504 56.2816 98.0824 58.6496C100.578 61.0176 103.714 62.2016 107.49 62.2016C113.442 62.2016 117.73 59.5456 120.354 54.2336L128.994 59.2256C126.946 62.6176 124.29 65.4976 121.026 67.8656C117.762 70.1696 113.25 71.3216 107.49 71.3216C102.754 71.3216 98.5304 70.2336 94.8184 68.0576C91.1064 65.8816 88.2264 62.8736 86.1784 59.0336C84.1304 55.1296 83.1064 50.7456 83.1064 45.8816ZM119.01 41.6576C118.69 38.1376 117.442 35.3856 115.266 33.4016C113.154 31.3536 110.338 30.3296 106.818 30.3296C103.17 30.3296 100.226 31.3536 97.9864 33.4016C95.8104 35.3856 94.4984 38.1376 94.0504 41.6576H119.01Z" fill="white"/>
<path d="M144.454 22.6496L151.174 61.0496H152.134L160.87 22.6496H175.558L184.294 61.0496H185.254L191.974 22.6496H202.63L192.55 69.9776H177.478L168.742 31.5776H167.782L158.95 69.9776H143.878L133.798 22.6496H144.454Z" fill="white"/>
<path d="M210.395 22.6496H220.667V29.5616H221.627C225.275 24.0576 230.747 21.3056 238.043 21.3056C241.947 21.3056 245.531 22.3296 248.795 24.3776C252.123 26.4256 254.779 29.3376 256.763 33.1136C258.747 36.8896 259.739 41.2736 259.739 46.2656C259.739 51.2576 258.747 55.6736 256.763 59.5136C254.779 63.2896 252.123 66.2016 248.795 68.2496C245.531 70.2976 241.947 71.3216 238.043 71.3216C230.747 71.3216 225.339 68.6336 221.819 63.2576H220.859V89.4656H210.395V22.6496ZM234.971 62.2016C239.195 62.2016 242.619 60.7936 245.243 57.9776C247.867 55.0976 249.179 51.1936 249.179 46.2656C249.179 41.3376 247.867 37.4656 245.243 34.6496C242.619 31.7696 239.195 30.3296 234.971 30.3296C230.811 30.3296 227.387 31.7696 224.699 34.6496C222.075 37.5296 220.763 41.4016 220.763 46.2656C220.763 51.1296 222.075 55.0016 224.699 57.8816C227.387 60.7616 230.811 62.2016 234.971 62.2016Z" fill="white"/>
<path d="M265.731 46.2656C265.731 41.2736 266.787 36.8896 268.899 33.1136C271.011 29.3376 273.923 26.4256 277.635 24.3776C281.411 22.3296 285.667 21.3056 290.403 21.3056C295.139 21.3056 299.363 22.3296 303.075 24.3776C306.787 26.4256 309.699 29.3376 311.811 33.1136C313.923 36.8896 314.979 41.2736 314.979 46.2656C314.979 51.3216 313.923 55.7376 311.811 59.5136C309.699 63.2896 306.787 66.2016 303.075 68.2496C299.363 70.2976 295.139 71.3216 290.403 71.3216C285.667 71.3216 281.411 70.2976 277.635 68.2496C273.923 66.2016 271.011 63.2896 268.899 59.5136C266.787 55.6736 265.731 51.2576 265.731 46.2656ZM276.291 46.2656C276.291 51.1296 277.571 55.0016 280.131 57.8816C282.755 60.6976 286.179 62.1056 290.403 62.1056C294.563 62.1056 297.923 60.6976 300.483 57.8816C303.107 55.0016 304.419 51.1296 304.419 46.2656C304.419 41.4016 303.107 37.5616 300.483 34.7456C297.923 31.9296 294.563 30.5216 290.403 30.5216C286.179 30.5216 282.755 31.9616 280.131 34.8416C277.571 37.6576 276.291 41.4656 276.291 46.2656Z" fill="white"/>
<path d="M334.198 29.1776H335.158C336.118 26.8096 337.558 25.1136 339.478 24.0896C341.398 23.0016 343.926 22.4576 347.062 22.4576H352.534V31.3856H345.238C341.91 31.3856 339.254 32.2816 337.27 34.0736C335.35 35.8656 334.39 38.4896 334.39 41.9456V69.9776H323.926V22.6496H334.198V29.1776Z" fill="white"/>
<path d="M355.581 22.6496H368.349V7.19361H378.909V22.6496H392.733V31.1936H378.909V58.4576C378.909 60.3776 379.805 61.3376 381.597 61.3376H391.293V69.9776H377.949C375.069 69.9776 372.733 69.0816 370.941 67.2896C369.213 65.4976 368.349 63.1296 368.349 60.1856V31.1936H355.581V22.6496Z" fill="white"/>
</svg>
